<?xml version="1.0" encoding="utf-8"?>
<!-- Generator: Adobe Illustrator 24.2.3, SVG Export Plug-In . SVG Version: 6.00 Build 0)  -->
<svg version="1.1" id="Layer_1" xmlns="http://www.w3.org/2000/svg" xmlns:xlink="http://www.w3.org/1999/xlink" x="0px" y="0px"
	 viewBox="0 0 260.1 221.9" style="enable-background:new 0 0 260.1 221.9;" xml:space="preserve">
<style type="text/css">
	.st0{enable-background:new    ;}
	.st1{fill:#2B66B1;}
	.st2{fill:#282829;}
	.st3{fill-rule:evenodd;clip-rule:evenodd;fill:#2B66B1;}
</style>
<g>
	<g class="st0">
		<path class="st1" d="M9.5,204.9v-28h15.8c3,0,5,1.3,6.2,3.9c0.3,0.7,0.4,1.3,0.4,2v3.4c0,2.1-0.9,3.6-2.7,4.6
			c1.4,0.6,2.2,1.7,2.6,3.4c0.1,0.2,0.1,0.5,0.1,0.9v2.6c0,4.8-2.4,7.2-7.2,7.2c-0.4,0-1.7,0-3.8,0C18.4,204.9,14.6,204.9,9.5,204.9
			z M24.3,189c0.9,0,1.7-0.2,2.2-0.7c0.6-0.5,0.8-1.2,0.8-2v-2.7c0-1.4-0.9-2.2-2.6-2.5c-0.2-0.1-0.4-0.1-0.5-0.1H13.9v8H24.3z
			 M13.9,200.8h10.2c1.2,0,2.1-0.5,2.7-1.5c0.3-0.5,0.5-1,0.5-1.4v-2.6c0-0.8-0.6-1.5-1.7-2c-0.4-0.2-0.9-0.3-1.4-0.3H13.9V200.8z"
			/>
		<path class="st1" d="M36.1,199.5v-15.6h4V200c0.2,0.9,1.1,1.3,2.6,1.3h6.2c1,0,1.6-0.2,2-0.5s0.6-0.9,0.6-1.8v-15.2h3.9v15.6
			c0,3.6-2.2,5.4-6.6,5.4h-6.1C38.3,204.9,36.1,203.1,36.1,199.5z"/>
		<path class="st1" d="M59.2,179.3c0-0.7,0.3-1.2,0.8-1.7s1.1-0.7,1.9-0.7c0.7,0,1.4,0.2,1.9,0.7s0.8,1.1,0.8,1.7s-0.3,1.2-0.8,1.7
			c-0.5,0.5-1.1,0.7-1.9,0.7c-0.8,0-1.4-0.2-1.9-0.7C59.5,180.5,59.2,180,59.2,179.3z M59.9,204.9h3.9v-21h-3.9V204.9z"/>
		<path class="st1" d="M68.3,204.9v-28h3.9v28H68.3z"/>
		<path class="st1" d="M76.7,199.4v-10.2c0-1.7,0.6-3,1.7-3.9s2.7-1.4,4.6-1.4h9.1v-7H96V199c0,1.5-0.6,2.9-1.7,4.1
			s-2.5,1.8-4.2,1.8h-7.7c-0.7,0-1.5-0.2-2.3-0.5C77.8,203.4,76.7,201.8,76.7,199.4z M80.6,199.4c0.2,1.3,0.9,2,2.1,2h6.9
			c0.6,0,1.1-0.2,1.5-0.5c0.7-0.4,1-1.1,1-2v-9.3c0-1.5-0.7-2.2-2.1-2.2h-6.9c-1.7,0-2.6,0.8-2.6,2.3v9.5
			C80.5,199.3,80.6,199.3,80.6,199.4z"/>
		<path class="st1" d="M99.7,179.3c0-0.7,0.3-1.2,0.8-1.7s1.1-0.7,1.9-0.7c0.7,0,1.4,0.2,1.9,0.7s0.8,1.1,0.8,1.7s-0.3,1.2-0.8,1.7
			s-1.1,0.7-1.9,0.7s-1.4-0.2-1.9-0.7S99.7,180,99.7,179.3z M100.5,204.9h3.9v-21h-3.9V204.9z"/>
		<path class="st1" d="M108.8,204.9v-15.6c0-3.6,2.2-5.4,6.6-5.4h6.1c4.4,0,6.6,1.8,6.6,5.4v15.6h-3.9v-16.1
			c-0.2-0.9-1.1-1.3-2.6-1.3h-6.2c-1,0-1.7,0.2-2.1,0.5s-0.6,0.9-0.6,1.8V205L108.8,204.9L108.8,204.9z"/>
		<path class="st1" d="M132.6,211.7v-3.5h12.6c2,0,2.9-0.8,2.9-2.5v-0.9h-9.3c-1.8,0-3.2-0.6-4.4-1.7c-1.1-1.1-1.7-2.5-1.7-4v-9.9
			c0-2.5,1.2-4.1,3.5-5c0.7-0.3,1.4-0.4,2-0.4h8.2c3.2,0,5,1.4,5.4,4.2c0.1,0.4,0.1,0.7,0.1,0.9v17.6c0,1.7-0.7,3-2,3.9
			c-1.2,0.8-2.8,1.2-4.7,1.2L132.6,211.7L132.6,211.7z M136.7,199.2c0.3,1.5,1.1,2.2,2.5,2.2h6.9c0.7,0,1.2-0.2,1.5-0.6
			c0.4-0.4,0.6-0.9,0.6-1.6v-9.5c0-1.6-0.7-2.4-2.1-2.4h-7.2c-1.5,0.2-2.2,1-2.2,2.3V199.2z"/>
	</g>
</g>
<g>
	<g class="st0">
		<path class="st2" d="M158.6,204.9v-28h15.8c3,0,5,1.3,6.2,3.9c0.3,0.7,0.4,1.3,0.4,2v3.4c0,2.1-0.9,3.6-2.7,4.6
			c1.4,0.6,2.2,1.7,2.6,3.4c0.1,0.2,0.1,0.5,0.1,0.9v2.6c0,4.8-2.4,7.2-7.2,7.2c-0.4,0-1.7,0-3.8,0
			C167.5,204.9,163.7,204.9,158.6,204.9z M173.4,189c0.9,0,1.7-0.2,2.2-0.7c0.6-0.5,0.8-1.2,0.8-2v-2.7c0-1.4-0.9-2.2-2.6-2.5
			c-0.2-0.1-0.4-0.1-0.5-0.1H163v8H173.4z M163,200.8h10.2c1.2,0,2.1-0.5,2.7-1.5c0.3-0.5,0.5-1,0.5-1.4v-2.6c0-0.8-0.6-1.5-1.7-2
			c-0.4-0.2-0.9-0.3-1.4-0.3H163V200.8z"/>
		<path class="st2" d="M185.2,199.7v-10.9c0-2.9,1.7-4.5,5.2-4.9c0.1,0,0.3,0,0.5,0h7.7c0.2,0,0.5,0,0.9,0.1
			c3.5,0.5,5.3,2.1,5.3,4.8v10.9c0,1.9-1.1,3.4-3.2,4.5c-0.8,0.4-1.8,0.6-3,0.6h-7.3c-3,0-4.9-1.3-5.8-3.8
			C185.2,200.2,185.1,199.8,185.2,199.7z M191.9,201.4h6.3c1.8,0,2.7-0.9,2.7-2.7v-8.8c0-1.7-0.9-2.5-2.7-2.5h-6.3
			c-1.9,0-2.8,0.8-2.8,2.5v8.7C189.1,200.5,190,201.4,191.9,201.4z"/>
		<path class="st2" d="M209.3,199.7v-10.9c0-2.9,1.7-4.5,5.2-4.9c0.1,0,0.3,0,0.5,0h7.7c0.2,0,0.5,0,0.9,0.1
			c3.5,0.5,5.3,2.1,5.3,4.8v10.9c0,1.9-1.1,3.4-3.2,4.5c-0.8,0.4-1.8,0.6-3,0.6h-7.3c-3,0-4.9-1.3-5.8-3.8
			C209.3,200.2,209.2,199.8,209.3,199.7z M216,201.4h6.3c1.8,0,2.7-0.9,2.7-2.7v-8.8c0-1.7-0.9-2.5-2.7-2.5H216
			c-1.9,0-2.8,0.8-2.8,2.5v8.7C213.2,200.5,214.1,201.4,216,201.4z"/>
		<path class="st2" d="M233.4,176.9h3.9v28h-3.9V176.9z M237.5,194c0,0.6,0.3,1.2,0.9,1.8l9.7,9.1h5.4L241.9,194l11.2-10.1h-5.5
			l-9.1,8.2C237.8,192.7,237.5,193.3,237.5,194z"/>
	</g>
</g>
<g>
	<g>
		<polygon class="st3" points="89.6,76.9 103.7,74.1 103.7,76.6 89.6,79.4 		"/>
		<polygon class="st3" points="89.6,82.2 103.7,79.4 103.7,81.9 89.6,84.7 		"/>
		<polygon class="st3" points="89.6,87.5 103.7,84.6 103.7,87.1 89.6,89.9 		"/>
		<polygon class="st3" points="89.6,92.7 103.7,89.9 103.7,92.4 89.6,95.2 		"/>
		<polygon class="st3" points="89.6,98 103.7,95.1 103.7,97.7 89.6,100.5 		"/>
		<polygon class="st3" points="89.6,103.2 103.7,100.4 103.7,103 89.6,105.8 		"/>
		<polygon class="st3" points="89.6,108.5 103.7,105.7 103.7,108.2 89.6,111.1 		"/>
		<polygon class="st3" points="89.6,113.9 103.7,111.1 103.7,113.7 89.6,116.5 		"/>
		<polygon class="st3" points="89.6,119.2 103.7,116.4 103.7,118.9 89.6,121.7 		"/>
		<polygon class="st3" points="89.6,124.5 103.7,121.6 103.7,124.2 89.6,127 		"/>
		<polygon class="st3" points="89.6,129.7 103.7,126.9 103.7,129.4 89.6,132.3 		"/>
		<polygon class="st3" points="89.6,135 103.7,132.2 103.7,134.7 89.6,137.6 		"/>
	</g>
	<g>
		<polygon class="st3" points="122.2,44.7 124.9,44.1 124.9,46.8 122.2,47.4 		"/>
		<polygon class="st3" points="122.2,50.5 124.9,49.9 124.9,52.6 122.2,53.2 		"/>
		<polygon class="st3" points="117.3,58.8 120,58.3 120,60.9 117.3,61.5 		"/>
		<polygon class="st3" points="117.3,64.6 120,64.1 120,66.7 117.3,67.3 		"/>
		<polygon class="st3" points="117.3,70.4 120,69.9 120,72.5 117.3,73 		"/>
		<polygon class="st3" points="117.3,76.2 120,75.7 120,78.3 117.3,78.8 		"/>
		<polygon class="st3" points="117.3,82 120,81.5 120,84.1 117.3,84.6 		"/>
		<polygon class="st3" points="117.3,87.8 120,87.3 120,89.9 117.3,90.5 		"/>
		<polygon class="st3" points="117.3,93.6 120,93.1 120,95.7 117.3,96.3 		"/>
		<polygon class="st3" points="117.3,99.4 120,98.9 120,101.5 117.3,102.1 		"/>
		<polygon class="st3" points="127.1,56.9 129.6,56.3 129.6,59 127.1,59.5 		"/>
		<polygon class="st3" points="127.1,62.7 129.6,62.1 129.6,64.8 127.1,65.3 		"/>
		<polygon class="st3" points="127.1,68.5 129.6,67.9 129.6,70.6 127.1,71.1 		"/>
		<polygon class="st3" points="127.1,74.2 129.6,73.7 129.6,76.4 127.1,76.9 		"/>
		<polygon class="st3" points="127.1,80 129.6,79.5 129.6,82.2 127.1,82.7 		"/>
		<polygon class="st3" points="127.1,85.8 129.6,85.3 129.6,88 127.1,88.5 		"/>
		<polygon class="st3" points="127.1,91.6 129.6,91.1 129.6,93.8 127.1,94.3 		"/>
		<polygon class="st3" points="127.1,97.4 129.6,96.9 129.6,99.6 127.1,100.1 		"/>
		<polygon class="st3" points="117.3,105.3 120,104.8 120,107.4 117.3,107.9 		"/>
		<polygon class="st3" points="127.1,103.3 129.6,102.8 129.6,105.5 127.1,106 		"/>
		<polygon class="st3" points="117.3,111.1 120,110.6 120,113.3 117.3,113.8 		"/>
		<polygon class="st3" points="117.3,116.9 120,116.4 120,119 117.3,119.6 		"/>
		<polygon class="st3" points="127.1,109.2 129.6,108.7 129.6,111.3 127.1,111.9 		"/>
		<polygon class="st3" points="127.1,115 129.6,114.4 129.6,117.1 127.1,117.6 		"/>
		<polygon class="st3" points="117.3,122.8 120,122.3 120,124.9 117.3,125.4 		"/>
		<polygon class="st3" points="127.1,120.8 129.6,120.3 129.6,123 127.1,123.5 		"/>
	</g>
	<g>
		<polygon class="st3" points="143.3,90.5 146,89.9 146,92.5 143.3,93 		"/>
		<polygon class="st3" points="143.3,97.1 146,96.6 146,99.1 143.3,99.7 		"/>
		<polygon class="st3" points="143.3,103.8 146,103.2 146,105.6 143.3,106.2 		"/>
		<polygon class="st3" points="143.3,110.3 146,109.7 146,112.3 143.3,112.8 		"/>
		<polygon class="st3" points="152,88.7 154.8,88.2 154.8,90.7 152,91.3 		"/>
		<polygon class="st3" points="152,95.4 154.8,94.8 154.8,97.3 152,97.9 		"/>
		<polygon class="st3" points="152,102 154.8,101.4 154.8,103.9 152,104.4 		"/>
		<polygon class="st3" points="152,108.5 154.8,108 154.8,110.5 152,111.1 		"/>
		<polygon class="st3" points="143.3,77.3 146,76.8 146,79.3 143.3,79.9 		"/>
		<polygon class="st3" points="143.3,84 146,83.4 146,85.8 143.3,86.4 		"/>
		<polygon class="st3" points="152,75.5 154.8,75 154.8,77.5 152,78.1 		"/>
		<polygon class="st3" points="152,82.1 154.8,81.6 154.8,84.1 152,84.6 		"/>
		<polygon class="st3" points="143.3,116.9 146,116.3 146,118.9 143.3,119.5 		"/>
		<polygon class="st3" points="143.3,123.5 146,122.9 146,125.4 143.3,126 		"/>
		<polygon class="st3" points="143.3,130 146,129.4 146,132 143.3,132.6 		"/>
		<polygon class="st3" points="143.3,136.6 146,136.1 146,138.7 143.3,139.2 		"/>
		<polygon class="st3" points="152,115.1 154.8,114.5 154.8,117.1 152,117.7 		"/>
		<polygon class="st3" points="152,121.7 154.8,121.1 154.8,123.6 152,124.2 		"/>
		<polygon class="st3" points="152,128.3 154.8,127.7 154.8,130.3 152,130.8 		"/>
		<polygon class="st3" points="152,134.9 154.8,134.3 154.8,136.9 152,137.5 		"/>
	</g>
	<g>
		<polygon class="st3" points="70.4,104.4 74.2,103.6 74.2,105.5 70.4,106.2 		"/>
		<polygon class="st3" points="70.4,109.1 74.2,108.4 74.2,110.2 70.4,110.9 		"/>
		<polygon class="st3" points="70.4,113.8 74.2,113.1 74.2,114.9 70.4,115.7 		"/>
		<polygon class="st3" points="70.4,118.6 74.2,117.9 74.2,119.7 70.4,120.4 		"/>
		<polygon class="st3" points="70.4,123.3 74.2,122.6 74.2,124.4 70.4,125.2 		"/>
		<polygon class="st3" points="77.1,103.1 80.8,102.4 80.8,104.2 77.1,104.9 		"/>
		<polygon class="st3" points="77.1,107.9 80.8,107.2 80.8,108.9 77.1,109.6 		"/>
		<polygon class="st3" points="77.1,112.6 80.8,111.9 80.8,113.7 77.1,114.3 		"/>
		<polygon class="st3" points="77.1,117.4 80.8,116.6 80.8,118.4 77.1,119.1 		"/>
		<polygon class="st3" points="77.1,122.1 80.8,121.4 80.8,123.1 77.1,123.9 		"/>
		<polygon class="st3" points="70.4,128.5 74.2,127.7 74.2,129.6 70.4,130.3 		"/>
		<polygon class="st3" points="70.4,133.2 74.2,132.5 74.2,134.3 70.4,135.1 		"/>
		<polygon class="st3" points="77.1,127.2 80.8,126.5 80.8,128.3 77.1,129 		"/>
		<polygon class="st3" points="77.1,132 80.8,131.3 80.8,133 77.1,133.8 		"/>
	</g>
	<path class="st3" d="M163,14.3L62.1,40.2v121.3c0,1.8,1.5,3.2,3.2,3.2c1.8,0,3.2-1.5,3.2-3.2v-60.4l14.7-3v37.6
		c0,1,0.9,1.9,1.9,1.9c1,0,1.9-0.9,1.9-1.9V76.5l4.5-12.7l5.3-1.1l5.2-1.1l4.7,11V149c0,1.9,1.5,3.5,3.5,3.5c1.9,0,3.5-1.6,3.5-3.5
		V54.7l3.7-0.8V42.2l12.9-2.6v11.9l3.7-0.8v83.2c0,1.5,1.2,2.6,2.6,2.6c1.5,0,2.6-1.1,2.6-2.6v-19.4c0-0.2,0-0.3,0-0.4l0,0V71.8
		l20.2-4.1v93.8c0,2.5,2,4.4,4.4,4.4s4.4-2,4.4-4.4V18.3C168,13.8,167.5,13.2,163,14.3z M186.2,18.8l-17.1,4.4
		c2.3,2.5,7.1,4.2,17.1,1.6v143.5c0,1.5,1.3,2.7,2.8,2.7c1.5,0,2.7-1.3,2.7-2.7V23.7C191.7,18.6,191.2,17.5,186.2,18.8z"/>
</g>
</svg>
