<?xml version="1.0" encoding="utf-8"?>
<!-- Generator: Adobe Illustrator 24.2.1, SVG Export Plug-In . SVG Version: 6.00 Build 0)  -->
<svg version="1.1" id="b847c0d8-de26-4ae3-b269-ef35a8ef771f"
	 xmlns="http://www.w3.org/2000/svg" xmlns:xlink="http://www.w3.org/1999/xlink" x="0px" y="0px" viewBox="0 0 902.9 711.2"
	 style="enable-background:new 0 0 902.9 711.2;" xml:space="preserve">
<style type="text/css">
	.st0{fill:#D0D2D5;}
	.st1{opacity:0.1;enable-background:new    ;}
	.st2{fill:#444053;}
	.st3{opacity:0.1;fill:#6C63FF;enable-background:new    ;}
	.st4{fill:#6C63FF;}
	.st5{fill:#FFFFFF;}
	.st6{opacity:0.3;fill:#6C63FF;enable-background:new    ;}
	.st7{opacity:0.2;fill:#3F3D56;enable-background:new    ;}
	.st8{fill:#EE8E9E;}
	.st9{fill:#454B69;}
	.st10{opacity:0.1;}
	.st11{opacity:0.6;fill:#444053;enable-background:new    ;}
	.st12{fill:#3F3D56;}
	.st13{fill:url(#SVGID_1_);}
	.st14{fill:#A26565;}
	.st15{fill:#EFB7B9;}
</style>
<polygon class="st0" points="514.2,635.5 319.2,633 319.8,628 329.2,545.5 500.4,545.5 513,628 514,634.2 "/>
<polygon class="st1" points="514,634.2 416.7,634.2 319.2,633 319.8,628 513,628 "/>
<rect x="286.7" y="629.2" class="st0" width="258.8" height="6.3"/>
<path class="st2" d="M792.3,50c0-9-7.2-16.3-16.2-16.4c0,0,0,0,0,0H53.5c-9,0-16.2,7.4-16.2,16.3c0,0,0,0,0,0v438h755V50z"/>
<path class="st0" d="M37.3,483.6v51.3c0,8.9,7.3,16.2,16.2,16.2l0,0h722.6c8.9,0,16.2-7.3,16.2-16.2v-51.3H37.3z"/>
<rect x="68.6" y="61.1" class="st3" width="696.3" height="393.8"/>
<path class="st4" d="M418.5,531.6c5.2,0,10.1-2.4,13.3-6.4l0,0c0.5-0.6,0.9-1.3,1.3-1.9l-9.3-1.5l10,0.1c1.9-4.2,2.1-9.1,0.3-13.4
	l-13.4,7l12.4-9.1c-4.7-8-15-10.8-23.1-6.1c-8,4.7-10.8,15-6.1,23.1c0.4,0.7,0.8,1.3,1.3,1.9l0,0
	C408.5,529.3,413.4,531.6,418.5,531.6z"/>
<polygon class="st1" points="435.4,551.1 513.2,629.2 501.3,551.1 "/>
<path class="st5" d="M91.6,132.1h451.8c1.4,0,2.6,1.2,2.6,2.6v268.8c0,1.4-1.2,2.6-2.6,2.6H91.6c-1.4,0-2.6-1.2-2.6-2.6V134.7
	C89,133.3,90.2,132.1,91.6,132.1z"/>
<rect x="69" y="61.1" class="st5" width="696" height="23"/>
<path class="st4" d="M72.8,65.1h18.4c0.4,0,0.8,0.3,0.8,0.8v12.4c0,0.4-0.3,0.8-0.8,0.8H72.8c-0.4,0-0.8-0.3-0.8-0.8V65.9
	C72,65.5,72.3,65.1,72.8,65.1z"/>
<path class="st6" d="M310.6,65.1h208.8c0.3,0,0.6,0.3,0.6,0.6v12.8c0,0.3-0.3,0.6-0.6,0.6H310.6c-0.3,0-0.6-0.3-0.6-0.6V65.7
	C310,65.4,310.3,65.1,310.6,65.1z"/>
<path class="st2" d="M513.8,73.6h-0.5l-0.2-0.2c0.6-0.8,1-1.7,1-2.7c0-2.3-1.9-4.1-4.2-4.1c-2.3,0-4.1,1.9-4.1,4.2
	c0,2.3,1.9,4.1,4.1,4.1c1,0,2-0.4,2.7-1l0.2,0.2v0.5l3.2,3.2l1-1L513.8,73.6z M509.9,73.6c-1.6,0-2.9-1.3-2.9-2.9s1.3-2.9,2.9-2.9
	s2.9,1.3,2.9,2.9c0,0,0,0,0,0C512.8,72.3,511.5,73.6,509.9,73.6C510,73.6,509.9,73.6,509.9,73.6z"/>
<circle class="st4" cx="755" cy="72.1" r="7"/>
<path class="st5" d="M581.4,109.1h60.1c1.3,0,2.4,1.1,2.4,2.4v39.1c0,1.3-1.1,2.4-2.4,2.4h-60.1c-1.3,0-2.4-1.1-2.4-2.4v-39.1
	C579,110.2,580.1,109.1,581.4,109.1z"/>
<path class="st5" d="M661.6,109.1h82.8c0.3,0,0.6,0.3,0.6,0.6v5.8c0,0.3-0.3,0.6-0.6,0.6h-82.8c-0.3,0-0.6-0.3-0.6-0.6v-5.8
	C661,109.4,661.3,109.1,661.6,109.1z"/>
<path class="st5" d="M661.6,124.1h82.8c0.3,0,0.6,0.3,0.6,0.6v5.8c0,0.3-0.3,0.6-0.6,0.6h-82.8c-0.3,0-0.6-0.3-0.6-0.6v-5.8
	C661,124.4,661.3,124.1,661.6,124.1z"/>
<path class="st5" d="M661.6,139.1h82.8c0.3,0,0.6,0.3,0.6,0.6v5.8c0,0.3-0.3,0.6-0.6,0.6h-82.8c-0.3,0-0.6-0.3-0.6-0.6v-5.8
	C661,139.4,661.3,139.1,661.6,139.1z"/>
<path class="st5" d="M581.4,178.1h60.1c1.3,0,2.4,1.1,2.4,2.4v39.1c0,1.3-1.1,2.4-2.4,2.4h-60.1c-1.3,0-2.4-1.1-2.4-2.4v-39.1
	C579,179.2,580.1,178.1,581.4,178.1z"/>
<path class="st5" d="M661.6,178.1h82.8c0.3,0,0.6,0.3,0.6,0.6v5.8c0,0.3-0.3,0.6-0.6,0.6h-82.8c-0.3,0-0.6-0.3-0.6-0.6v-5.8
	C661,178.4,661.3,178.1,661.6,178.1z"/>
<path class="st5" d="M661.6,193.1h82.8c0.3,0,0.6,0.3,0.6,0.6v5.8c0,0.3-0.3,0.6-0.6,0.6h-82.8c-0.3,0-0.6-0.3-0.6-0.6v-5.8
	C661,193.4,661.3,193.1,661.6,193.1z"/>
<path class="st5" d="M661.7,208.1h82.7c0.4,0,0.7,0.3,0.7,0.7v5.7c0,0.4-0.3,0.7-0.7,0.7h-82.7c-0.4,0-0.7-0.3-0.7-0.7v-5.7
	C661,208.4,661.3,208.1,661.7,208.1z"/>
<path class="st5" d="M581.4,247.1h60.1c1.3,0,2.4,1.1,2.4,2.4v39.1c0,1.3-1.1,2.4-2.4,2.4h-60.1c-1.3,0-2.4-1.1-2.4-2.4v-39.1
	C579,248.2,580.1,247.1,581.4,247.1z"/>
<path class="st5" d="M661.7,247.1h82.7c0.4,0,0.7,0.3,0.7,0.7v5.7c0,0.4-0.3,0.7-0.7,0.7h-82.7c-0.4,0-0.7-0.3-0.7-0.7v-5.7
	C661,247.4,661.3,247.1,661.7,247.1z"/>
<path class="st5" d="M661.7,262.1h82.7c0.4,0,0.7,0.3,0.7,0.7v5.7c0,0.4-0.3,0.7-0.7,0.7h-82.7c-0.4,0-0.7-0.3-0.7-0.7v-5.7
	C661,262.4,661.3,262.1,661.7,262.1z"/>
<path class="st5" d="M661.7,277.1h82.7c0.4,0,0.7,0.3,0.7,0.7v5.7c0,0.4-0.3,0.7-0.7,0.7h-82.7c-0.4,0-0.7-0.3-0.7-0.7v-5.7
	C661,277.4,661.3,277.1,661.7,277.1z"/>
<path class="st5" d="M581.4,316.1h60.1c1.3,0,2.4,1.1,2.4,2.4v39.1c0,1.3-1.1,2.4-2.4,2.4h-60.1c-1.3,0-2.4-1.1-2.4-2.4v-39.1
	C579,317.2,580.1,316.1,581.4,316.1z"/>
<path class="st5" d="M661.7,316.1h82.7c0.4,0,0.7,0.3,0.7,0.7v5.7c0,0.4-0.3,0.7-0.7,0.7h-82.7c-0.4,0-0.7-0.3-0.7-0.7v-5.7
	C661,316.4,661.3,316.1,661.7,316.1z"/>
<path class="st5" d="M661.7,331.1h82.7c0.4,0,0.7,0.3,0.7,0.7v5.7c0,0.4-0.3,0.7-0.7,0.7h-82.7c-0.4,0-0.7-0.3-0.7-0.7v-5.7
	C661,331.4,661.3,331.1,661.7,331.1z"/>
<path class="st5" d="M661.7,346.1h82.7c0.4,0,0.7,0.3,0.7,0.7v5.7c0,0.4-0.3,0.7-0.7,0.7h-82.7c-0.4,0-0.7-0.3-0.7-0.7v-5.7
	C661,346.4,661.3,346.1,661.7,346.1z"/>
<path class="st5" d="M581.4,385.1h60.1c1.3,0,2.4,1.1,2.4,2.4v39.1c0,1.3-1.1,2.4-2.4,2.4h-60.1c-1.3,0-2.4-1.1-2.4-2.4v-39.1
	C579,386.2,580.1,385.1,581.4,385.1z"/>
<path class="st5" d="M661.7,385.1h82.7c0.4,0,0.7,0.3,0.7,0.7v5.7c0,0.4-0.3,0.7-0.7,0.7h-82.7c-0.4,0-0.7-0.3-0.7-0.7v-5.7
	C661,385.4,661.3,385.1,661.7,385.1z"/>
<path class="st5" d="M661.7,400.1h82.7c0.4,0,0.7,0.3,0.7,0.7v5.7c0,0.4-0.3,0.7-0.7,0.7h-82.7c-0.4,0-0.7-0.3-0.7-0.7v-5.7
	C661,400.4,661.3,400.1,661.7,400.1z"/>
<path class="st5" d="M661.7,415.1h82.7c0.4,0,0.7,0.3,0.7,0.7v5.7c0,0.4-0.3,0.7-0.7,0.7h-82.7c-0.4,0-0.7-0.3-0.7-0.7v-5.7
	C661,415.4,661.3,415.1,661.7,415.1z"/>
<rect x="154.9" y="204.8" class="st3" width="102.8" height="5.3"/>
<rect x="164.1" y="176.6" class="st3" width="9.9" height="28.2"/>
<rect x="178.5" y="176.6" class="st3" width="9.9" height="28.2"/>
<rect x="193" y="176.6" class="st3" width="9.9" height="28.2"/>
<rect x="207.5" y="176.6" class="st3" width="9.9" height="28.2"/>
<rect x="221.9" y="176.6" class="st3" width="9.9" height="28.2"/>
<rect x="236.4" y="176.6" class="st3" width="9.9" height="28.2"/>
<rect x="164.1" y="181.9" class="st3" width="9.9" height="3"/>
<rect x="178.5" y="181.9" class="st3" width="9.9" height="3"/>
<rect x="193" y="181.9" class="st3" width="9.9" height="3"/>
<rect x="207.5" y="181.9" class="st3" width="9.9" height="3"/>
<rect x="221.9" y="181.9" class="st3" width="9.9" height="3"/>
<rect x="236.4" y="181.9" class="st3" width="9.9" height="3"/>
<rect x="164.1" y="195.6" class="st3" width="9.9" height="3"/>
<rect x="178.5" y="195.6" class="st3" width="9.9" height="3"/>
<rect x="193" y="195.6" class="st3" width="9.9" height="3"/>
<rect x="207.5" y="195.6" class="st3" width="9.9" height="3"/>
<rect x="221.9" y="195.6" class="st3" width="9.9" height="3"/>
<rect x="236.4" y="195.6" class="st3" width="9.9" height="3"/>
<rect x="380.4" y="218.5" class="st3" width="102.8" height="5.3"/>
<rect x="389.5" y="190.3" class="st3" width="9.9" height="28.2"/>
<rect x="404" y="190.3" class="st3" width="9.9" height="28.2"/>
<rect x="418.5" y="190.3" class="st3" width="9.9" height="28.2"/>
<rect x="432.9" y="190.3" class="st3" width="9.9" height="28.2"/>
<rect x="447.4" y="190.3" class="st3" width="9.9" height="28.2"/>
<rect x="461.9" y="190.3" class="st3" width="9.9" height="28.2"/>
<rect x="389.5" y="195.6" class="st3" width="9.9" height="3"/>
<rect x="404" y="195.6" class="st3" width="9.9" height="3"/>
<rect x="418.5" y="195.6" class="st3" width="9.9" height="3"/>
<rect x="432.9" y="195.6" class="st3" width="9.9" height="3"/>
<rect x="447.4" y="195.6" class="st3" width="9.9" height="3"/>
<rect x="461.9" y="195.6" class="st3" width="9.9" height="3"/>
<rect x="389.5" y="209.3" class="st3" width="9.9" height="3"/>
<rect x="404" y="209.3" class="st3" width="9.9" height="3"/>
<rect x="418.5" y="209.3" class="st3" width="9.9" height="3"/>
<rect x="432.9" y="209.3" class="st3" width="9.9" height="3"/>
<rect x="447.4" y="209.3" class="st3" width="9.9" height="3"/>
<rect x="461.9" y="209.3" class="st3" width="9.9" height="3"/>
<rect x="380.4" y="257.3" class="st3" width="102.8" height="5.3"/>
<rect x="389.5" y="229.1" class="st3" width="9.9" height="28.2"/>
<rect x="404" y="229.1" class="st3" width="9.9" height="28.2"/>
<rect x="418.5" y="229.1" class="st3" width="9.9" height="28.2"/>
<rect x="432.9" y="229.1" class="st3" width="9.9" height="28.2"/>
<rect x="447.4" y="229.1" class="st3" width="9.9" height="28.2"/>
<rect x="461.9" y="229.1" class="st3" width="9.9" height="28.2"/>
<rect x="389.5" y="234.5" class="st3" width="9.9" height="3"/>
<rect x="404" y="234.5" class="st3" width="9.9" height="3"/>
<rect x="418.5" y="234.5" class="st3" width="9.9" height="3"/>
<rect x="432.9" y="234.5" class="st3" width="9.9" height="3"/>
<rect x="447.4" y="234.5" class="st3" width="9.9" height="3"/>
<rect x="461.9" y="234.5" class="st3" width="9.9" height="3"/>
<rect x="389.5" y="248.2" class="st3" width="9.9" height="3"/>
<rect x="404" y="248.2" class="st3" width="9.9" height="3"/>
<rect x="418.5" y="248.2" class="st3" width="9.9" height="3"/>
<rect x="432.9" y="248.2" class="st3" width="9.9" height="3"/>
<rect x="447.4" y="248.2" class="st3" width="9.9" height="3"/>
<rect x="461.9" y="248.2" class="st3" width="9.9" height="3"/>
<path class="st3" d="M218,265c-0.8-1-1.5-2-2.1-3.1l14.8-2.4l-16,0.1c-3.1-6.8-3.3-14.5-0.5-21.4l21.5,11.1l-19.8-14.6
	c7.4-13,23.9-17.5,36.8-10.1c13,7.4,17.5,23.9,10.1,36.8c-0.7,1.2-1.5,2.4-2.3,3.5c1.2,1.5,2.2,3.2,3.1,4.9l-19.2,10l20.5-6.9
	c2.9,8.6,1.3,18.1-4.4,25.3c9.2,11.7,7.2,28.7-4.5,37.9s-28.7,7.2-37.9-4.5c-7.7-9.8-7.7-23.6,0-33.4
	C210.3,288.6,210.3,274.8,218,265L218,265z"/>
<path class="st3" d="M266.2,281.7c0,6-2,11.9-5.8,16.7c9.2,11.7,7.2,28.7-4.5,37.9s-28.7,7.2-37.9-4.5c-7.7-9.8-7.7-23.6,0-33.4
	C214.4,293.8,266.2,278.7,266.2,281.7z"/>
<path class="st7" d="M243.5,349.3c0,0.1,0.1,0.1,0.1,0.2h-9.2c0-0.1,0.1-0.1,0.1-0.2c-0.8-1.4-1.2-2.9-1.2-4.5
	c0-1.1,0.2-2.2,0.5-3.2l0,0c0.5,0.1,1.1,0.2,1.9,0.3c2.1,0.2,4.3,0.2,6.4,0c0.6-0.1,1.2-0.1,1.9-0.2c0,0,0,0,0,0
	c0.4,1,0.5,2.1,0.5,3.1C244.7,346.3,244.3,347.9,243.5,349.3z"/>
<path class="st3" d="M210.6,349.5h-51c-0.1-0.3-0.2-0.6-0.3-0.9c-1.8-5.8-1.6-12,0.6-17.6c-10.2-7.1-14.3-20.3-9.9-31.9
	c-1-0.7-2-1.5-2.9-2.3l13.4-6.7l-15.3,4.8c-5-5.5-7.4-12.9-6.8-20.3l23.8,4.3l-23.2-8.1c3.2-14.6,17.6-23.8,32.2-20.6
	c14.6,3.2,23.8,17.6,20.6,32.2c-0.3,1.4-0.7,2.8-1.2,4.1c1.6,1.1,3.1,2.4,4.4,3.9l-15.4,15.2l17.5-12.6c5.3,7.4,6.6,17,3.3,25.5
	C210.4,325.4,214.6,338,210.6,349.5z"/>
<path class="st3" d="M210.6,349.5h-51c-0.1-0.3-0.2-0.6-0.3-0.9c-1.8-5.8-1.6-12,0.6-17.6c-4.8-3.3,40.2-33.1,41.1-30.2
	c1.8,5.8,1.6,12-0.6,17.6C210.4,325.3,214.6,338,210.6,349.5z"/>
<path class="st3" d="M441.3,312.9c-3.1,5.2-7.9,9.2-13.5,11.4c0.2,1.9,0.3,3.9,0.1,5.8l-21.6-1.3l21.1,4.6c-0.6,2.9-1.7,5.6-3.2,8.2
	c-1.8,3.1-4.3,5.8-7.2,7.9h-29.4v0.8h-30c0.1-0.3,0.1-0.5,0.2-0.8c2.2-8.4,8.3-15.2,16.5-18.3c-1.6-12.4,5.5-24.2,17.1-28.6
	c-0.2-1.2-0.2-2.5-0.2-3.7l14,5.5l-13.8-8.1c0.8-7.4,4.7-14.1,10.6-18.6l12.7,20.6l-9.5-22.7c13-7.2,29.5-2.5,36.7,10.6
	C446.4,294.4,446.3,304.7,441.3,312.9L441.3,312.9z"/>
<path class="st3" d="M424.2,341.6c-1.8,3.1-4.3,5.8-7.2,7.9h-29.4v0.8h-30c0.1-0.3,0.1-0.5,0.2-0.8c2.2-8.4,8.3-15.2,16.5-18.3
	c-0.3-2,5.6-1.7,13.3-0.4C402.8,333.3,425.3,339.9,424.2,341.6z"/>
<path class="st8" d="M296.7,269.6c0,0,3.7,20-4.6,26.5s7,45.7,32.2,41.1c25.2-4.6,35.4-37.4,35.4-37.4s-25.2-5.2-15.9-31.8
	L296.7,269.6z"/>
<path class="st1" d="M296.7,269.6c0,0,3.7,20-4.6,26.5s7,45.7,32.2,41.1c25.2-4.6,35.4-37.4,35.4-37.4s-25.2-5.2-15.9-31.8
	L296.7,269.6z"/>
<circle class="st8" cx="319" cy="242.5" r="41.8"/>
<path class="st4" d="M387.6,321.9v28.4H249.8v-27.1c0-7,4.2-13.4,10.7-16.1l4-1.7c10-4.3,22.1-9.5,26.1-11.8
	c0.4-0.2,0.8-0.5,1.2-0.8c2.2-2.2,1.7,0.6,1.7,0.6s-0.1,0.5-0.1,1.5c-0.2,6.4,0.7,31.5,30.1,29.4c28.7-2,30-21.4,29.7-27.1
	c0-0.5-0.1-1.1-0.1-1.6c2,0.5,3.9,1.1,5.8,1.9c6,2.2,14.9,5.8,17.2,7.5c0.7,0.5,1.6,1.1,2.6,1.6c1.1,0.6,2.2,1.4,3.1,2.2
	C385.5,312.2,387.6,316.9,387.6,321.9z"/>
<path class="st1" d="M358.8,297.5c-2.4,11.3-10.1,32.4-37.6,32.9c-29.3,0.6-31-28.6-30.8-36.8c0.4-0.2,0.9-0.5,1.2-0.8
	c2.2-2.2,1.7,0.6,1.7,0.6s-3.7,33.3,30,30.9s29.6-28.7,29.6-28.7C353,295.5,355.5,296.4,358.8,297.5z"/>
<path class="st9" d="M269.6,244.6c2.8-0.7,5.8,0.4,7.5,2.8c1.5,2.1,1.8,4.7,1.9,7.2c1.8,0.4,2.8-1.7,3-3.2
	c0.7-6.3,0.7-12.7,2.8-18.8s6.8-12,13.9-14.3c2.4-0.8,5-1.1,7.6-0.7c1.5,0.3,2.9,0.8,4.4,1c5.2,0.9,10.9-1.6,15.7,0.1
	c3.1,1.1,5,3.6,6.4,6.1c0.6,1.3,1.5,2.6,2.5,3.6c2.1,1.9,5.3,2.3,8.3,2.9s6.2,1.6,7.5,3.9c1.1,2.1,0.3,4.5-0.1,6.7
	c-0.6,3.5,0,7.2,1.7,10.4c0.5,1,1.7,2.2,3,1.9c0.6-0.2,1.1-0.6,1.4-1.1c3.4-4.8,3.3-11,7.6-15.3c1.4-1.4,3.3-2.6,4.7-4
	c2.1-2.2,3-5.3,2.4-8.2c-0.8-3.3-3.4-6-5.5-8.9c-2.8-3.7-4.8-7.9-5.9-12.3c-0.2-0.5-0.2-1.1,0-1.6c0.4-0.5,0.9-0.9,1.5-1.2
	c2.4-1.6,3.2-4.7,1.9-7.3c-1.2-2.5-3.9-4.4-6.9-5.5c-3-1-6.2-1.7-9.4-2c-2.1,0.3-4.6-0.9-5.2-2.6c-0.3-0.8-0.3-1.6-0.6-2.3
	c-0.8-1.5-2.3-2.6-4-2.8c-1.8-0.3-3.6-0.2-5.3,0.4c-2,0.6-4.3,1.4-6,0.4c-0.9-0.5-1.4-1.4-2.4-1.9c-2-0.8-4.1,0.9-5.5,2.3
	c-1.4,1.5-3.1,2.6-5,3.3c-2,0.8-4.3,0.6-6.1-0.4c-1.4-0.9-2.1-2.3-3.1-3.4c-2.1-1.8-4.7-2.9-7.5-3c-2.8-0.2-5.7,0.2-8.4,0.9
	c-5.2,1.3-10.2,3.4-14.8,6.2c-2.3,1.3-4.2,3.1-5.7,5.3c-0.8,1.7-1.3,3.5-1.3,5.4c-0.2,5.9,1.7,12.1,6.9,16.3
	c-3.1,1.3-4.2,4.5-4.9,7.3c-1.2,4.5-2.3,9.1-1.9,13.7c0.2,2.4,0.9,4.8,0.5,7.1c-0.3,1.1-0.4,2.3-0.5,3.4
	C267.2,243.4,268.3,244.4,269.6,244.6z"/>
<g class="st10">
	<path d="M371.2,223.4c-0.4,1-1.1,1.9-1.8,2.7c-1.4,1.5-3.2,2.6-4.7,4c-4.3,4.3-4.2,10.5-7.6,15.3c-0.3,0.5-0.8,0.9-1.4,1.1
		c-1.3,0.3-2.4-0.8-3-1.9c-0.7-1.3-1.2-2.6-1.5-4c-0.1,0.4-0.1,0.7-0.2,1c-0.6,3.5,0,7.2,1.7,10.4c0.5,1,1.7,2.2,3,1.9
		c0.6-0.2,1.1-0.6,1.4-1.1c3.4-4.8,3.3-11,7.6-15.3c1.4-1.4,3.3-2.6,4.7-4c2.1-2.2,3-5.3,2.4-8.2
		C371.7,224.5,371.5,223.9,371.2,223.4z"/>
	<path d="M361.9,193.8c-0.6,0.3-1.1,0.7-1.5,1.2c-0.2,0.5-0.2,1.1,0,1.6c0.4,1.6,0.9,3.1,1.5,4.6l0,0c2.4-1.6,3.2-4.7,1.9-7.3
		c-0.2-0.4-0.4-0.8-0.7-1.2C362.8,193.1,362.4,193.5,361.9,193.8z"/>
	<path d="M273.7,203c-3.5-2.9-5.9-7-6.5-11.6c-0.2,0.9-0.3,1.8-0.3,2.7c-0.2,4.4,0.9,8.7,3.3,12.4C270.9,205,272.1,203.7,273.7,203z
		"/>
	<path d="M351.1,234.3c0.4-2.3,1.2-4.6,0.1-6.7c-1.3-2.3-4.5-3.3-7.5-3.9s-6.2-1.1-8.3-2.9c-1-1.1-1.9-2.3-2.5-3.6
		c-1.4-2.5-3.4-5-6.4-6.1c-4.9-1.7-10.5,0.7-15.7-0.1c-1.5-0.3-2.9-0.8-4.4-1c-2.5-0.4-5.1-0.1-7.6,0.7c-7.1,2.3-11.7,8.2-13.9,14.3
		s-2.2,12.5-2.8,18.8c-0.2,1.5-1.2,3.6-3,3.2c-0.2-2.5-0.4-5-1.9-7.2c-1.7-2.4-4.7-3.5-7.5-2.7c-0.8-0.2-1.6-0.7-2.1-1.4
		c0.1,0.9,0.1,1.8,0,2.8c-0.3,1.1-0.4,2.3-0.5,3.4c0.3,1.3,1.3,2.3,2.6,2.6c2.8-0.7,5.8,0.4,7.5,2.8c1.5,2.1,1.8,4.7,1.9,7.2
		c1.8,0.4,2.8-1.7,3-3.2c0.7-6.3,0.7-12.7,2.8-18.8s6.8-12,13.9-14.3c2.4-0.8,5-1.1,7.6-0.7c1.5,0.3,2.9,0.8,4.4,1
		c5.2,0.9,10.9-1.6,15.7,0.1c3.1,1.1,5,3.6,6.4,6.1c0.6,1.3,1.5,2.6,2.5,3.6c2.1,1.9,5.3,2.3,8.3,2.9s6,1.5,7.3,3.6
		C351,234.6,351,234.5,351.1,234.3z"/>
	<path d="M267.4,231.2c0.2-1.9,0.1-3.7-0.3-5.6c-0.3,1.9-0.4,3.9-0.2,5.8c0,0.5,0.1,1,0.2,1.5C267.2,232.4,267.4,231.8,267.4,231.2z
		"/>
</g>
<path class="st2" d="M218.5,390.6v-18c0-0.3,0.2-0.5,0.5-0.5c0,0,0,0,0,0h2c0.3,0,0.5,0.2,0.5,0.5l0,0v7.5l8.3-7.7
	c0.6-0.5,1.4-0.4,1.9,0.2c0.2,0.2,0.3,0.5,0.3,0.8v16.3c0,0.8-0.7,1.3-1.4,1.3c-0.3,0-0.6-0.1-0.8-0.3l-8.3-7.7v7.5
	c0,0.3-0.2,0.5-0.5,0.5c0,0,0,0,0,0h-2C218.8,391,218.5,390.8,218.5,390.6z"/>
<path class="st2" d="M419.5,372.5v18c0,0.3-0.2,0.5-0.5,0.5c0,0,0,0,0,0h-2c-0.3,0-0.5-0.2-0.5-0.5l0,0v-7.5l-8.3,7.7
	c-0.6,0.5-1.4,0.4-1.9-0.2c-0.2-0.2-0.3-0.5-0.3-0.8v-16.4c0-0.8,0.7-1.3,1.4-1.3c0.3,0,0.6,0.1,0.8,0.3l8.3,7.7v-7.5
	c0-0.3,0.2-0.5,0.5-0.5l0,0h2C419.3,372.1,419.5,372.3,419.5,372.5z"/>
<path class="st2" d="M315.6,391.4h-4.1c-1.1,0-2-0.9-2-2v-14.9c0-1.1,0.9-2,2-2h4.1c1.1,0,2,0.9,2,2v14.9
	C317.6,390.5,316.7,391.4,315.6,391.4z M328.5,389.4v-14.9c0-1.1-0.9-2-2-2h-4.1c-1.1,0-2,0.9-2,2v14.9c0,1.1,0.9,2,2,2h4.1
	C327.6,391.4,328.5,390.5,328.5,389.4C328.5,389.4,328.5,389.4,328.5,389.4z"/>
<rect x="199" y="348.2" class="st11" width="240" height="2.7"/>
<circle class="st2" cx="273.1" cy="349.5" r="6.3"/>
<rect x="199" y="348.2" class="st2" width="74.1" height="2.7"/>
<ellipse class="st4" cx="807.1" cy="638.1" rx="59.5" ry="11.4"/>
<ellipse class="st12" cx="806.1" cy="633.3" rx="6.9" ry="9.1"/>
<ellipse class="st12" cx="806.1" cy="622.2" rx="6.9" ry="9.1"/>
<ellipse class="st12" cx="806.1" cy="611.1" rx="6.9" ry="9.1"/>
<ellipse class="st12" cx="806.1" cy="600" rx="6.9" ry="9.1"/>
<ellipse class="st12" cx="806.1" cy="589" rx="6.9" ry="9.1"/>
<ellipse class="st12" cx="806.1" cy="577.9" rx="6.9" ry="9.1"/>
<ellipse class="st12" cx="806.1" cy="566.8" rx="6.9" ry="9.1"/>
<path class="st4" d="M832,491c0.9-1.2,1.8-2.5,2.6-3.8l-18.2-3l19.7,0.2c3.8-8.3,4-17.8,0.6-26.3l-26.4,13.7l24.3-17.9
	c-9.2-15.9-29.5-21.3-45.3-12.1c-15.9,9.2-21.3,29.5-12.1,45.3c0.8,1.4,1.7,2.7,2.6,3.9c-1.5,1.9-2.7,3.9-3.8,6l23.6,12.3l-25.2-8.5
	c-3.6,10.6-1.6,22.3,5.3,31.1c-11.3,14.4-8.8,35.2,5.6,46.6c14.4,11.3,35.2,8.8,46.6-5.6c9.5-12,9.5-29,0-41
	C841.5,519.9,841.5,503,832,491L832,491z"/>
<path class="st1" d="M772.8,511.5c0,7.4,2.5,14.7,7.1,20.5c-11.3,14.4-8.8,35.2,5.6,46.6c14.4,11.3,35.2,8.8,46.6-5.6
	c9.5-12,9.5-29,0-41C836.5,526.4,772.8,507.8,772.8,511.5z"/>
<ellipse class="st3" cx="140" cy="690.1" rx="99" ry="21"/>
<linearGradient id="SVGID_1_" gradientUnits="userSpaceOnUse" x1="171.6458" y1="-145.6662" x2="171.6458" y2="264.3017" gradientTransform="matrix(1 0 0 -1 -35 556.85)">
	<stop  offset="0" style="stop-color:#808080;stop-opacity:0.25"/>
	<stop  offset="0.54" style="stop-color:#808080;stop-opacity:0.12"/>
	<stop  offset="1" style="stop-color:#808080;stop-opacity:0.1"/>
</linearGradient>
<path class="st13" d="M173.1,687.7c-2-0.7-4.1-0.6-6.2-0.8c-4.3-0.5-8.4-2.5-11.5-5.6c-2-2-3.5-4.4-4.6-7c0.7,0.2,1.3,0.5,2,0.8
	c-2-4.7,0.1-9.9,1.9-14.6c3.1-8,6.1-16,8.9-24.1c7-20.5,13-41.8,12.9-63.6c0-7.9-1.5-15.3-1.7-23.2c-0.2-5.8,0.7-11.7,0.6-17.5
	c0-0.8,0-1.6-0.1-2.5c3.6-3.2,5.6-7.9,5.3-12.7c-0.1-1.2-0.3-2.5-0.5-3.7c-0.4-2.1-0.8-4.2-1.4-6.3c-0.7-2.2-1.6-4.3-2.3-6.4
	c-1.5-4.1-2.5-8.4-3.8-12.6c0.5,0,0.9,0.2,1.4,0.4c-0.3-0.4-0.5-0.8-0.6-1.3c-0.7-2.7-1.1-5.4-1.2-8.2l0.9-0.4
	c0.4-2.7,0.2-5.4-0.4-8.1c0.5-4.3,1.2-8.6,1.7-12.9c0.2-1.6,0.1-3.6-1.4-4c-0.3-2.3-0.4-4.6-0.5-6.9c-0.4-8.1-0.8-16.1-1.3-24.2
	c-0.4-8.1-0.8-16.2-1-24.3c-0.1-5.1-0.2-10.5-1.4-15.4c0.2-2.4,0-4.7-0.7-7c-1.9-5.9-7.6-10.6-13.5-10.2c-1.7-2.5-3.9-4.7-6.4-6.5
	c1.2-2.6,2.6-5.3,3.7-7.4c9.4-3,16.2-12.3,16.2-23.3c0-4-0.9-8-2.8-11.6c0.2-0.4,0.3-0.9,0.4-1.4c0.5-2.2,0.3-4.4-0.5-6.5
	c-0.3-0.8-0.6-1.6-1-2.3c-0.3-0.5-0.5-1-0.8-1.5l-0.5-0.8c-0.3-0.5-0.6-0.9-1-1.4c-0.7-1-1.5-1.9-2.3-2.7c-1-1.1-2.1-2.1-3.3-2.9
	c-1.6-1.2-3.4-2-5.4-2.5c-1.1-0.2-2.3-0.3-3.4-0.3c-0.7,0-1.4,0-2.1,0.1c-1.4,0.1-2.8,0.2-4.2,0.2c-0.5,0-0.9,0-1.4-0.1
	c-2.4-0.3-4.9-0.8-7.2-1.5l-1.2-0.3c-0.4-0.1-0.8-0.1-1.2-0.2c-1.1-0.1-2.2-0.2-3.3-0.2h-1.1c-1.1,0.1-2.2,0.2-3.3,0.3l-1.1,0.2
	c-2.8,0.4-5.5,1.2-8,2.4c-0.3,0.1-0.7,0.3-1,0.5l-0.2,0.1c-0.3,0.1-0.5,0.3-0.8,0.5l-0.1,0.1l-0.9,0.5l-0.1,0
	c-7.9,5.3-12.6,15.5-13.8,25.5c-1.3,11.3,1,22.6,3.3,33.7l2.1,10c0.1,0.5,0.2,0.9,0.3,1.3c-3,2.4-5.2,5.6-6.6,9.1
	c-2,5-2,10.4-1.9,15.8c0,1.1,0.1,2.2,0.2,3.3c-0.3,2.1-0.5,4.2-0.6,6.3c-0.6,9.7,0.5,19.5,0.2,29.2c-0.2,7.5-1.4,15-0.8,22.4
	c0.5,6.6,2.3,13,4,19.4l2.5,9.1c0.1,0.5,0.3,0.9,0.6,1.3c0.4,0.3,0.9,0.4,1.4,0.3c-1.6,3.7-3,7.6-4.1,11.5c-0.8,2.4-1.2,4.9-1.5,7.4
	c-0.3,4.6,0.7,9.1,1.8,13.6c1.6,6.7,3.2,13.4,4.8,20.1c1.1,4.7,2.2,9.4,3.4,14.1c2.2,9.3,4.4,18.6,4.8,28.1c0.2,4.8-0.1,9.6-1,14.3
	c-2.9,14.1-3.3,28.6-1.2,42.8c1.7,12,4.4,23.9,8.1,35.4c0.8-0.4,1.6-0.8,2.5-1.2l-0.4,0.7c-1.2,2-2.2,4-3.2,6.2
	c-0.7,1.4-1.2,2.8-1.7,4.2c-1.3,4-1.5,8.3-1.7,12.5c-0.1,0.8,0,1.6,0.2,2.4c0.5,1.5,2.1,2.3,3.6,2.7c4.3,1.2,8.8,0.8,13.3,0.2
	c0,0.1,0.1,0.2,0.1,0.3c0.5,1.5,2.1,2.3,3.6,2.7c6.2,1.8,12.7,0.1,19.1-0.5s12.6-0.2,18.8-1.6c0.9-0.2,1.8-0.5,2.6-1
	c1.6-1.1,2.7-2.7,3.3-4.5c0.2-0.5,0.3-1,0.4-1.5C177,690.4,175.1,688.4,173.1,687.7z M152,595.1c-0.3,2.3-1,4.6-2,6.8
	c-4.8,10.2-8.3,21-10.3,32.2c-1.3,7.3-2.1,14.8-2.3,22.3c-0.1,5.5,0.1,11.3-2.2,16.2l0.8-0.1c-0.3,0.5-0.5,1-0.8,1.4l-0.1,0.2
	c-1.4-2.4-2.3-5-2.7-7.7c0-0.1-0.5-0.2-1.1-0.2c-2.8-15.8-3.8-31.9-2.9-47.9c0-1.9,0.3-3.9,0.8-5.8c0.5-1.6,1.4-3.1,2-4.6
	c1-2.6,1.7-5.4,2-8.1c1.1-7.1,1.5-14.3,1.3-21.5c-0.2-6.8,1.3-13.5,2.7-20.3c0.6-3.2,1.2-6.4,1.5-9.7l0.1-0.7
	c5.9,9.8,10.1,20.6,12.3,31.9C152.3,584.6,152.6,589.9,152,595.1z M109.2,450.6l0.3,0.3c1,0.9,1.9,1.8,2.7,2.8
	c0.4,0.4,0.7,1,0.8,1.5c0.3,1.5-0.9,2.7-1.9,3.8c-0.4,0.5-0.8,1-1.2,1.5C109.7,457.1,109.5,453.9,109.2,450.6L109.2,450.6z"/>
<path class="st4" d="M95.4,387.9l-1.1,8.5c-0.4,2.9-0.7,5.8-0.9,8.6c-0.7,9.6,0.6,19.3,0.3,28.9c-0.3,7.4-1.4,14.8-0.9,22.2
	c0.5,6.5,2.4,12.9,4.2,19.2l2.6,9c0.1,0.5,0.3,0.9,0.7,1.2c0.5,0.3,1.1,0.4,1.7,0.3l11.7-1.1c-0.8-3.4-1.6-7-2-10.5
	c-0.3-2.8-0.5-5.5-0.7-8.3c-0.6-8.7-1.3-17.3-2-26l-1.3-15.2c-0.5-6.6-1.1-13.2-2.7-19.6C103.3,398.7,100,392.7,95.4,387.9z"/>
<path class="st1" d="M95.4,387.9l-1.1,8.5c-0.4,2.9-0.7,5.8-0.9,8.6c-0.7,9.6,0.6,19.3,0.3,28.9c-0.3,7.4-1.4,14.8-0.9,22.2
	c0.5,6.5,2.4,12.9,4.2,19.2l2.6,9c0.1,0.5,0.3,0.9,0.7,1.2c0.5,0.3,1.1,0.4,1.7,0.3l11.7-1.1c-0.8-3.4-1.6-7-2-10.5
	c-0.3-2.8-0.5-5.5-0.7-8.3c-0.6-8.7-1.3-17.3-2-26l-1.3-15.2c-0.5-6.6-1.1-13.2-2.7-19.6C103.3,398.7,100,392.7,95.4,387.9z"/>
<path class="st14" d="M116.2,676.9c-0.7,1.4-1.3,2.7-1.8,4.2c-1.3,4-1.5,8.2-1.7,12.4c-0.1,0.8,0,1.6,0.2,2.4
	c0.6,1.5,2.2,2.3,3.8,2.7c6.5,1.8,13.3,0.1,20-0.5s13.3-0.2,19.7-1.6c1-0.2,1.9-0.5,2.7-1c1.6-1.1,2.8-2.6,3.5-4.5
	c0.2-0.5,0.3-1,0.4-1.5c0.2-2.2-1.7-4.1-3.8-4.8s-4.4-0.6-6.5-0.8c-9.3-0.9-16.8-8-18.2-17.2c-0.1-0.5-10.8-0.2-12,0.4
	c-1.3,0.7-2.1,2.5-2.9,3.8C118.4,672.8,117.3,674.8,116.2,676.9z"/>
<path class="st1" d="M116.2,676.9c-0.7,1.4-1.3,2.7-1.8,4.2c-1.3,4-1.5,8.2-1.7,12.4c-0.1,0.8,0,1.6,0.2,2.4
	c0.6,1.5,2.2,2.3,3.8,2.7c6.5,1.8,13.3,0.1,20-0.5s13.3-0.2,19.7-1.6c1-0.2,1.9-0.5,2.7-1c1.6-1.1,2.8-2.6,3.5-4.5
	c0.2-0.5,0.3-1,0.4-1.5c0.2-2.2-1.7-4.1-3.8-4.8s-4.4-0.6-6.5-0.8c-9.3-0.9-16.8-8-18.2-17.2c-0.1-0.5-10.8-0.2-12,0.4
	c-1.3,0.7-2.1,2.5-2.9,3.8C118.4,672.8,117.3,674.8,116.2,676.9z"/>
<path class="st14" d="M134.1,680.1c-0.7,1.3-1.3,2.7-1.8,4.2c-1.4,4-1.5,8.2-1.7,12.4c-0.1,0.8,0,1.6,0.2,2.4
	c0.6,1.5,2.2,2.3,3.8,2.7c6.5,1.7,13.3,0.1,20-0.5s13.3-0.2,19.7-1.6c1-0.2,1.9-0.5,2.7-1c1.6-1.1,2.9-2.6,3.5-4.5
	c0.2-0.5,0.3-1,0.4-1.5c0.2-2.2-1.7-4.1-3.8-4.8s-4.4-0.6-6.5-0.8c-9.3-1-16.7-8-18.2-17.2c-0.1-0.5-10.8-0.2-12,0.4
	c-1.3,0.7-2.1,2.5-2.9,3.8C136.2,676,135.1,678,134.1,680.1z"/>
<path class="st9" d="M180.6,573.9c0.1,21.6-6.1,42.7-13.5,63c-2.9,8-6,16-9.3,23.9c-1.9,4.7-4.1,9.9-2,14.5
	c-6-2.3-12.1-3.6-18.4-2.6c2.4-4.9,2.2-10.6,2.3-16c0.2-7.4,1-14.8,2.4-22c2.1-11.1,5.7-21.8,10.8-31.9c1-2.1,1.7-4.4,2.1-6.7
	c0.8-5.1,0.2-10.4-0.9-15.5c-2.3-11.2-6.7-22-12.9-31.6l-0.1,0.6c-0.4,3.2-0.9,6.4-1.6,9.6c-1.4,6.7-3.1,13.4-2.8,20.1
	c0.3,7.1-0.2,14.3-1.3,21.3c-0.4,2.8-1.1,5.5-2.1,8.1c-0.7,1.5-1.6,3-2.1,4.6c-0.5,1.9-0.8,3.8-0.8,5.7c-0.8,16.3,0,32.8,3.3,48.7
	c-5.6-0.4-11.1,1.2-16.1,3.7c-3.9-11.4-6.7-23.2-8.5-35.1c-2.2-14.1-1.7-28.5,1.3-42.5c0.9-4.7,1.3-9.4,1-14.2
	c-0.4-9.5-2.8-18.7-5.1-27.9l-3.5-14c-1.7-6.7-3.3-13.3-5-19.9c-1.1-4.4-2.2-8.9-1.9-13.5c0.2-2.5,0.8-4.9,1.6-7.3
	c2.5-8.1,6.2-15.7,11.1-22.6c19.3,1.1,38.8-0.7,58-2.2c0.9-0.2,1.9,0,2.7,0.5c0.7,0.7,1,1.5,1.1,2.5l7.2,41c1.2,5.7,1.9,11.5,2,17.3
	c0,5.8-0.9,11.6-0.7,17.4C179.1,558.7,180.6,566.1,180.6,573.9z"/>
<path class="st1" d="M141,549.6c-0.4,3.2-0.9,6.4-1.6,9.6c-4.2-7.3-8.7-14.3-12.6-21.8c-1-1.9-1.9-3.8-2.9-5.8l-2.9-5.8
	c-0.5-1.1-1.1-2.2-1.5-3.3c-0.8-1.6-1.4-3.3-1.8-5c1.4-0.3,4.9,3.5,5.9,4.5c2.1,2.1,4.1,4.3,6,6.6c2.3,2.6,4.4,5.3,6.3,8.2
	C138.4,540.8,140.1,545.1,141,549.6z"/>
<path class="st15" d="M157.1,350.7c0,0-10.7,17-8.7,20.6s-33.7-3.2-33.7-3.2s19.4-17,17.4-24.2S157.1,350.7,157.1,350.7z"/>
<circle class="st15" cx="147.6" cy="331.6" r="24.2"/>
<path class="st4" d="M157.5,368.5c-2.6-3.6-6.1-6.4-10.2-8.2c-2.3-0.8-4.8-1.4-7.2-1.8l-9.6-1.7c-2.4-0.4-4.9-0.8-7.1,0.2
	c-1.1,0.6-2.1,1.3-3,2.2c-3.4,3.1-6.6,6.5-10.8,8.3c-1.1,0.5-2.4,0.8-3.5,1.3c-4.7,2-8.2,6.3-10.2,11c-2.1,4.9-2.2,10.3-2,15.7
	c0,1.9,0.2,3.7,0.5,5.5c0.5,1.7,1.1,3.4,1.8,5.1c1.3,3.5,2.4,7.1,3.3,10.7c2.5,9.6,4.6,19.2,6.2,29c0.1,1.4,0.6,2.8,1.2,4
	c0.9,1.2,2.1,2.3,3.3,3.2c1,0.8,1.9,1.8,2.8,2.8c0.4,0.4,0.7,0.9,0.9,1.5c0.3,1.4-1,2.7-2,3.7c-2.2,2.2-3.7,4.9-4.5,7.9
	c-0.5,0.6-0.8,1.4-0.7,2.2c0.2,0.5,0.3,1.1,0.2,1.7c-0.2,0.5-0.5,1-0.9,1.4c-0.9,1.2-1.3,2.8-1,4.3c7.5,3.3,15.5,5.1,23.7,5.5
	c2,0.1,4,0.1,6,0.3c1.4,0.2,2.8,0.5,4.2,0.6c2.1,0.2,4.1,0.2,6.2,0.2c10.8-0.2,21.9-0.5,31.7-4.8c0.9-5.1-1.1-10.2-2.3-15.2
	c-2-8-2.5-16.2-4-24.3c-1-5.5-2.5-10.9-3.4-16.5s-1-11.3,0.5-16.7c1.4-4.8,1.8-9.7,3.2-14.4s2.4-9.9,0.8-14.7
	C169.7,372.8,163.6,368.2,157.5,368.5z"/>
<path class="st14" d="M169.3,318.8c1.2-4.3-1.1-8.8-3.9-12.3c-3-3.8-6.8-7.1-11.5-8.1c-3.8-0.8-7.8,0.2-11.6-0.1
	c-3.4-0.3-6.7-1.5-10.1-2c-3.1-0.3-6.2-0.2-9.3,0.4c-2.9,0.4-5.7,1.2-8.5,2.4c-10.3,4.6-16.3,15.8-17.7,27s1,22.4,3.5,33.4l2.2,9.9
	c2.3,10.3,4.6,20.7,5.2,31.3s-0.5,21.4-4.9,31.1c14.1-7.6,25-19.9,30.7-34.8c1.6-4.1,2.7-8.3,4.5-12.4c1.5-3.5,3.4-6.7,4.7-10.3
	c1.5-4,2.2-8.2,2.1-12.5c-0.1-3.2-0.6-6.4-0.5-9.6s0.9-6.5,3.1-8.9c2-2,4.8-3,7.3-4.3c4-2,7.5-4.9,10.2-8.5c1.6-2.1,1.7-3,2.1-5.4
	S168.7,321.1,169.3,318.8z"/>
<path class="st15" d="M169.4,500.5c0.3,2.5-0.2,5,0.3,7.5c0.4,1.8,1.4,3.5,1.9,5.3c0.6,2.1,0.8,4.2,0.9,6.4c0.1,1.8-0.1,4-1.7,4.8
	c-0.7,0.4-1.5,0.4-2.3,0.7s-1.4,1.2-0.9,1.9s1.1,0.6,1.8,0.7s1.4,0.8,1,1.4c-0.2,0.2-0.4,0.3-0.6,0.4c-0.7,0.2-1.3,0.5-1.9,0.9
	c-0.6,0.4-0.9,1.1-0.8,1.8c0.1,0.6,0.8,1,1.4,0.8c0.1,0,0.2-0.1,0.2-0.1c-0.3,0.6-0.5,1.3-0.5,2c2.6,1.1,5.4-0.3,7.8-1.7
	c1-0.6,2-1.2,3-1.9c3.9-3,6.1-7.8,5.8-12.8c-0.1-1.2-0.3-2.4-0.6-3.7c-0.4-2.1-0.9-4.2-1.5-6.2c-0.7-2.2-1.6-4.2-2.4-6.3
	c-1.7-4.5-2.8-9.2-4.4-13.7c-0.1-0.5-0.4-0.9-0.8-1.2c-0.3-0.2-0.7-0.2-1.1-0.2c-1.8-0.1-3.5,0.1-5.2,0.5c-1,0.3-2.7,1-3.2,2
	s0.3,1.8,0.7,2.7C168,494.9,169,497.7,169.4,500.5z"/>
<path class="st1" d="M167.7,379c0.5,0.5,0.9,1.1,1.3,1.8c3.4,6.3,3.5,13.7,3.6,20.8c0.2,8,0.6,16,1.1,24l1.3,24
	c0.1,2.3,0.3,4.6,0.6,6.8c1.5,0.4,1.6,2.4,1.4,4c-1.1,9.8-3.9,19.8-1,29.3c0.1,0.5,0.3,0.9,0.7,1.3c-1.5-0.5-3-0.5-4.5-0.1
	c-1.4,0.3-2.8,0.8-4.3,1.2c-1.8,0.4-3.9,0.6-5.1,2c-1.4-4.2-2.5-8.5-3.4-12.9c-0.7-4-0.9-8.1-2.5-11.8c-0.6-1.5-1.5-2.9-2.3-4.3
	c-4.2-7.5-6.3-15.9-8.3-24.3c-0.9-4-1.1-8-0.6-12.1c0.3-1.8,0.5-3.7,0.5-5.5c-0.1-2-0.4-3.9-0.8-5.8c-0.8-5.7-0.5-11.4,1.2-16.9
	c1.5-5.1,2.8-10.5,6-14.7S162.4,379.1,167.7,379z"/>
<path class="st4" d="M168.9,378.2c0.5,0.5,0.9,1.1,1.3,1.8c3.4,6.2,3.5,13.7,3.6,20.8c0.2,8,0.6,16,1.1,24l1.3,24
	c0.1,2.3,0.3,4.6,0.6,6.8c1.5,0.4,1.6,2.4,1.4,4c-1.1,9.8-3.9,19.8-1,29.3c0.1,0.5,0.3,0.9,0.7,1.3c-1.5-0.5-3-0.5-4.5-0.1
	c-1.4,0.3-2.8,0.8-4.3,1.2c-1.8,0.4-3.9,0.6-5.1,2c-1.4-4.2-2.5-8.6-3.3-13c-0.7-4-0.9-8.1-2.5-11.8c-0.7-1.5-1.5-2.9-2.3-4.3
	c-4.2-7.5-6.3-15.9-8.3-24.3c-0.9-4-1.1-8-0.6-12.1c0.8-3.8,0.7-7.7-0.3-11.4c-0.8-5.7-0.5-11.4,1.2-16.9c1.5-5.1,2.8-10.5,6-14.7
	S163.6,378.3,168.9,378.2z"/>
<g class="st10">
	<path d="M165.4,306.6c-3-3.8-6.8-7.1-11.5-8.1c-3.8-0.8-7.8,0.2-11.6-0.1c-3.4-0.3-6.7-1.5-10.1-2c-3.1-0.3-6.2-0.2-9.3,0.4
		c-2.9,0.4-5.7,1.2-8.5,2.4c-1.5,0.7-2.9,1.4-4.2,2.4c2.4-0.9,4.9-1.6,7.5-2c3.1-0.6,6.2-0.7,9.3-0.4c3.4,0.4,6.7,1.7,10.1,1.9
		c3.9,0.3,7.8-0.6,11.6,0.1c4.7,0.9,8.5,4.3,11.5,8.1c2.8,3.5,5.1,8,3.9,12.3c-0.6,2.3-2.1,4.2-2.5,6.6s-0.5,3.3-2.1,5.4
		c-2.1,2.7-4.5,5-7.3,6.8c0.8-0.4,1.6-0.7,2.3-1.1c4-2,7.5-4.9,10.2-8.5c1.6-2.1,1.7-3,2.1-5.4s1.8-4.3,2.5-6.6
		C170.5,314.5,168.2,310,165.4,306.6z"/>
	<path d="M147.3,343.6c0.4-0.4,0.9-0.8,1.4-1.2c-2.3,1.1-4.7,2.1-6.5,4c-2.2,2.3-3,5.6-3.1,8.9s0.5,6.4,0.5,9.6
		c0.1,4.3-0.6,8.5-2.1,12.5c-1.3,3.5-3.2,6.8-4.7,10.3c-1.7,4-2.9,8.3-4.5,12.3c-5,12.9-13.9,24-25.4,31.6c-0.1,0.1-0.1,0.3-0.2,0.4
		c14.1-7.6,25-19.9,30.7-34.8c1.6-4.1,2.7-8.3,4.5-12.4c1.5-3.5,3.4-6.7,4.7-10.3c1.5-4,2.2-8.2,2.1-12.5c-0.1-3.2-0.6-6.4-0.5-9.6
		S145.1,345.9,147.3,343.6z"/>
</g>
</svg>
